<?xml version="1.0" encoding="utf-8"?>
<!-- Generator: Adobe Illustrator 19.0.0, SVG Export Plug-In . SVG Version: 6.00 Build 0)  -->
<svg version="1.1" xmlns="http://www.w3.org/2000/svg" xmlns:xlink="http://www.w3.org/1999/xlink" x="0px" y="0px"
	 viewBox="0 0 1000 1000" style="enable-background:new 0 0 1000 1000;" xml:space="preserve">
<style type="text/css">
	.st0{fill:none;}
	.st1{fill:#FFFFFF;}
</style>
<g id="Layer_2">
	<rect id="XMLID_8_" class="st0" width="1000" height="1000"/>
</g>
<g id="Layer_1">
	<g id="XMLID_1_">
		<g id="XMLID_4_">
			<g id="XMLID_5_">
				<path id="XMLID_29_" class="st1" d="M549.7,392.4l-37.8,80L396.4,716.7c-0.1,0.3-0.4,0.4-0.7,0.4h-74c-0.3,0-0.6-0.2-0.7-0.4
					L165.4,395.1c-0.4-0.7-1.5-0.5-1.5,0.3v441.8c0,0.4-0.3,0.8-0.8,0.8H63.5c-0.4,0-0.8-0.3-0.8-0.8V171.8c0-0.4,0.3-0.8,0.8-0.8
					h99.9c0.3,0,0.6,0.2,0.7,0.4L358,584.5c0.3,0.6,1.1,0.6,1.4,0l120.3-261.3l20.8-45.1c0.3-0.6,49.2,113.7,49.2,113.7
					C549.8,392,549.8,392.2,549.7,392.4z"/>
			</g>
		</g>
		<g id="XMLID_2_">
			<g id="XMLID_3_">
				<path id="XMLID_26_" class="st1" d="M698.3,837.9c-99.9,0-212.8,0-212.8,0v-90.6h214.7c86.8,0,137.2-37.3,137.2-101.8
					c0-28.9-8.4-53.2-26.1-69.1c-16.8-15.9-33.6-22.4-72.8-28L660,537.3c-54.1-7.5-97.1-26.1-126-53.2
					c-32.7-30.8-48.5-72.8-48.5-127c0-115.8,84-195.1,222.2-195.1c87.8,0,149.4,22.4,206.3,75.6l-64.4,63.5
					c-41.1-39.2-88.7-51.3-144.7-51.3c-78.4,0-121.4,44.8-121.4,103.6c0,24.3,7.5,45.7,25.2,61.6c16.8,14.9,43.9,26.1,74.7,30.8
					L759,457c61.6,9.3,96.2,24.3,124.2,49.5c36.4,31.7,54.1,79.3,54.1,136.3C937.3,765,837.4,837.9,698.3,837.9z"/>
			</g>
		</g>
	</g>
</g>
</svg>
